<svg xmlns="http://www.w3.org/2000/svg" xmlns:xlink="http://www.w3.org/1999/xlink" version="1.1" x="0px" y="0px" viewBox="0 0 100 100" style="enable-background:new 0 0 100 100;" xml:space="preserve"><g><g><path d="M65,27.5c-2.3,0-4.2-1.8-4.4-4h3.5c1.7,0,3-1.3,3-3v-7.3c0-1.7-1.3-3-3-3H33c-1.7,0-3,1.3-3,3v7.3c0,1.7,1.3,3,3,3h3.5    c-0.3,2.3-2.2,4-4.5,4c-5.9,0-10.6,4.8-10.6,10.6v37.8c0,3.3,2.7,6.1,6.1,6.1h42.2c3.4,0,6.2-2.8,6.2-6.2V38.3    C75.8,32.4,70.9,27.5,65,27.5z M32,20.5v-7.3c0-0.6,0.4-1,1-1h2.9c0,0,0,0.1,0,0.1v6.1c0,0.6,0.4,1,1,1s1-0.4,1-1v-6.1    c0,0,0-0.1,0-0.1h1.5c0,0,0,0.1,0,0.1v6.1c0,0.6,0.4,1,1,1s1-0.4,1-1v-6.1c0,0,0-0.1,0-0.1h22.7c0.6,0,1,0.4,1,1v7.3    c0,0.6-0.4,1-1,1h-4.9H37.9H33C32.4,21.5,32,21.1,32,20.5z M31.9,29.5c3.4,0,6.3-2.6,6.6-6h20c0.2,3.3,3,6,6.4,6    c4.9,0,8.8,4,8.8,8.8v11.2h-7.9v-6.3c0-2.9-2.4-5.3-5.3-5.3H36.1c-2.9,0-5.3,2.4-5.3,5.3v6.3h-7.5V38.1    C23.3,33.4,27.2,29.5,31.9,29.5z M63.9,67.8c0,1.8-1.5,3.3-3.3,3.3H36.1c-1.8,0-3.3-1.5-3.3-3.3V43.3c0-1.8,1.5-3.3,3.3-3.3h24.5    c1.8,0,3.3,1.5,3.3,3.3V67.8z M69.6,80H27.4c-2.2,0-4.1-1.8-4.1-4.1V51.6h7.5v16.3c0,2.9,2.4,5.3,5.3,5.3h24.5    c2.9,0,5.3-2.4,5.3-5.3V51.6h7.9v24.2H48.1c-0.6,0-1,0.4-1,1s0.4,1,1,1h25.2C72.6,79.1,71.2,80,69.6,80z"></path><path d="M54.8,52.5h-3.4V49c0-0.6-0.4-1-1-1h-4.2c-0.6,0-1,0.4-1,1v3.4h-3.4c-0.6,0-1,0.4-1,1v4.2c0,0.6,0.4,1,1,1h3.4v3.4    c0,0.6,0.4,1,1,1h4.2c0.6,0,1-0.4,1-1v-3.4h3.4c0.6,0,1-0.4,1-1v-4.2C55.8,52.9,55.3,52.5,54.8,52.5z M53.8,56.6h-3.4    c-0.6,0-1,0.4-1,1v3.4h-2.2v-3.4c0-0.6-0.4-1-1-1h-3.4v-2.2h3.4c0.6,0,1-0.4,1-1V50h2.2v3.4c0,0.6,0.4,1,1,1h3.4V56.6z"></path><path d="M27,38.5c0.6,0,1-0.4,1-1c0-3.8,4.9-4.2,5.1-4.3c0.5,0,1-0.5,0.9-1.1c0-0.6-0.5-1-1.1-0.9C30.5,31.5,26,33,26,37.5    C26,38.1,26.4,38.5,27,38.5z"></path></g></g></svg>