<svg xmlns="http://www.w3.org/2000/svg" xmlns:xlink="http://www.w3.org/1999/xlink" version="1.1" x="0px" y="0px" viewBox="0 0 100 100" enable-background="new 0 0 100 100" xml:space="preserve"><path d="M90.183,55.566H78.961l-1.536-2.83v-1.934H89.14c0.443,0,0.803-0.359,0.803-0.803c0-0.443-0.359-0.803-0.803-0.803H77.425  V38.955H89.14c0.443,0,0.803-0.359,0.803-0.803c0-0.444-0.359-0.803-0.803-0.803H77.425V27.124H89.14  c0.443,0,0.803-0.359,0.803-0.803s-0.359-0.803-0.803-0.803H77.425V15.275c0-0.443-0.359-0.803-0.803-0.803s-0.803,0.36-0.803,0.803  v10.243H64.123V15.275c0-0.443-0.359-0.803-0.803-0.803c-0.442,0-0.802,0.36-0.802,0.803v10.243h-9.475l-0.438-10.313  c-0.106-2.518-2.087-4.499-4.605-4.608c-0.061-0.003-0.14-0.005-0.219-0.005c-2.408,0-4.457,1.806-4.766,4.201l-1.387,10.725h-4.147  V15.275c0-0.443-0.36-0.803-0.803-0.803s-0.803,0.36-0.803,0.803v10.243H24.181V15.275c0-0.443-0.359-0.803-0.802-0.803  c-0.444,0-0.803,0.36-0.803,0.803v10.243H10.86c-0.443,0-0.802,0.359-0.802,0.803s0.359,0.803,0.802,0.803h11.715v10.225H10.86  c-0.443,0-0.802,0.359-0.802,0.803c0,0.443,0.359,0.803,0.802,0.803h11.715v10.242H10.86c-0.443,0-0.802,0.36-0.802,0.803  c0,0.444,0.359,0.803,0.802,0.803h11.715v2.822l-1.882,1.941H9.817C7.162,55.566,5,57.729,5,60.385s2.162,4.816,4.817,4.816h12.758  v7.674H10.86c-0.443,0-0.802,0.359-0.802,0.805c0,0.443,0.359,0.803,0.802,0.803h11.715v10.242c0,0.443,0.359,0.803,0.803,0.803  c0.443,0,0.802-0.359,0.802-0.803V74.482h11.696v10.242c0,0.443,0.359,0.803,0.803,0.803s0.803-0.359,0.803-0.803V74.482h8  l0.438,10.313c0.101,2.363,1.878,4.289,4.227,4.578c0.203,0.023,0.396,0.035,0.587,0.035c2.122,0,4.022-1.424,4.621-3.461  l3.366-11.465h3.797v10.242c0,0.443,0.359,0.803,0.802,0.803c0.443,0,0.803-0.359,0.803-0.803V74.482h11.696v10.242  c0,0.443,0.359,0.803,0.803,0.803s0.803-0.359,0.803-0.803V74.482H89.14c0.443,0,0.803-0.359,0.803-0.803  c0-0.445-0.359-0.805-0.803-0.805H77.425v-7.674h12.758c2.656,0,4.817-2.16,4.817-4.816S92.839,55.566,90.183,55.566z   M64.123,27.124h11.696v10.225H64.123V27.124z M64.123,38.955h11.696v10.242h-0.315l-1.333-2.455  c-0.856-1.579-2.447-2.519-4.256-2.519c-0.017,0-0.035,0-0.052,0c-1.798,0.028-3.417,1.042-4.227,2.646l-1.176,2.328h-0.338V38.955z   M62.519,49.197h-8.468l-0.435-10.242h8.902V49.197z M62.519,50.803v2.244l-1.273,2.52h-3.406c-1.326,0-2.566,0.555-3.454,1.471  l-0.267-6.234H62.519z M62.519,27.124v10.225h-8.972l-0.435-10.225H62.519z M37.482,27.124h3.939L40.1,37.349h-2.618V27.124z   M37.482,38.955h2.41l-1.324,10.242h-1.086V38.955z M38.361,50.803l-0.616,4.764h-0.263v-4.764H38.361z M35.876,54.182l-3.273-3.379  h3.273V54.182z M24.181,27.124h11.696v10.225H24.181V27.124z M24.181,38.955h11.696v10.242h-6.381  c-0.178-0.02-0.358-0.032-0.539-0.032c-0.182,0-0.361,0.012-0.539,0.032h-4.236V38.955z M24.181,50.803h1.128l-1.128,1.164V50.803z   M24.181,72.875v-7.898c0.757-0.24,1.454-0.662,2.012-1.238l1.053-1.088h3.421l1.052,1.086c0.903,0.932,2.164,1.465,3.459,1.465  h0.698v7.674H24.181z M28.801,61.045l0.155-0.16l0.155,0.16H28.801z M37.482,72.875v-7.674h4.498c1.152,0,2.223-0.412,3.061-1.102  l0.374,8.775H37.482z M59.192,72.875l2.253-7.674h1.073v7.674H59.192z M64.123,72.875v-7.674h0.087c1.791,0,3.403-0.977,4.242-2.551  h3.392l0.017,0.031c0.798,1.473,2.299,2.406,3.959,2.502v7.691H64.123z M69.272,61.045l0.818-1.621l0.881,1.621H69.272z   M90.183,61.99H76.094c-0.589,0-1.131-0.322-1.411-0.84l-4.694-8.65l-4.346,8.609c-0.272,0.539-0.827,0.881-1.433,0.881h-5.169  l-6.767,23.053c-0.203,0.689-0.836,1.154-1.54,1.154c-0.064,0-0.13-0.004-0.196-0.014c-0.78-0.094-1.375-0.74-1.409-1.525  l-2.145-50.463L43.573,60.59c-0.104,0.801-0.785,1.4-1.592,1.4h-6.802c-0.435,0-0.851-0.176-1.153-0.488l-5.069-5.232l-5.069,5.232  c-0.302,0.313-0.719,0.488-1.153,0.488H9.817c-0.887,0-1.605-0.719-1.605-1.605s0.719-1.605,1.605-1.605h12.236l5.75-5.936  c0.303-0.311,0.728-0.467,1.153-0.467c0.425,0,0.851,0.156,1.153,0.467l5.75,5.936h4.709l5.633-43.575  c0.103-0.801,0.772-1.401,1.581-1.401c0.026,0,0.054,0,0.081,0.002c0.833,0.036,1.5,0.703,1.536,1.536l2.528,59.487l4.373-14.896  c0.2-0.684,0.828-1.152,1.54-1.152h5.383l5.282-10.463c0.27-0.534,0.813-0.873,1.41-0.882h0.001c0.637,0,1.148,0.316,1.434,0.84  l5.701,10.506h13.133c0.887,0,1.606,0.719,1.606,1.605S91.069,61.99,90.183,61.99z"></path></svg>