<svg xmlns="http://www.w3.org/2000/svg" xmlns:xlink="http://www.w3.org/1999/xlink" xmlns:sketch="http://www.bohemiancoding.com/sketch/ns" viewBox="0 0 56 60" version="1.1" x="0px" y="0px"><title>buildings-77</title><desc>Created with Sketch.</desc><g stroke="none" stroke-width="1" fill="none" fill-rule="evenodd" sketch:type="MSPage"><g sketch:type="MSLayerGroup" fill="#000000"><path d="M38,60 L12,60 C11.448,60 11,59.552 11,59 C11,58.448 11.448,58 12,58 L38,58 C38.552,58 39,58.448 39,59 C39,59.552 38.552,60 38,60" sketch:type="MSShapeGroup"></path><path d="M25,60 C24.448,60 24,59.552 24,59 L24,1 C24,0.448 24.448,0 25,0 C25.552,0 26,0.448 26,1 L26,59 C26,59.552 25.552,60 25,60" sketch:type="MSShapeGroup"></path><path d="M49.02,18 L49,18 L7,18 C6.536,18 6.133,17.681 6.027,17.23 C5.92,16.778 6.138,16.313 6.553,16.105 L24.553,7.105 C24.801,6.981 25.091,6.966 25.351,7.064 L49.256,16.028 C49.694,16.134 50.02,16.529 50.02,17 C50.02,17.552 49.572,18 49.02,18 L49.02,18 Z M11.236,16 L43.485,16 L25.057,9.089 L11.236,16 L11.236,16 Z" sketch:type="MSShapeGroup"></path><path d="M53,18 L3,18 C2.448,18 2,17.552 2,17 C2,16.448 2.448,16 3,16 L53,16 C53.552,16 54,16.448 54,17 C54,17.552 53.552,18 53,18" sketch:type="MSShapeGroup"></path><path d="M48,31 C47.448,31 47,30.552 47,30 L47,17 C47,16.448 47.448,16 48,16 C48.552,16 49,16.448 49,17 L49,30 C49,30.552 48.552,31 48,31" sketch:type="MSShapeGroup"></path><path d="M51,25 L45,25 C44.448,25 44,24.552 44,24 C44,23.448 44.448,23 45,23 L51,23 C51.552,23 52,23.448 52,24 C52,24.552 51.552,25 51,25" sketch:type="MSShapeGroup"></path><path d="M43,36 C42.744,36 42.488,35.902 42.293,35.707 C41.902,35.317 41.902,34.683 42.293,34.293 L47.293,29.293 C47.684,28.902 48.316,28.902 48.707,29.293 C49.098,29.683 49.098,30.317 48.707,30.707 L43.707,35.707 C43.512,35.902 43.256,36 43,36" sketch:type="MSShapeGroup"></path><path d="M53,36 C52.744,36 52.488,35.902 52.293,35.707 L47.293,30.707 C46.902,30.317 46.902,29.683 47.293,29.293 C47.684,28.902 48.316,28.902 48.707,29.293 L53.707,34.293 C54.098,34.683 54.098,35.317 53.707,35.707 C53.512,35.902 53.256,36 53,36" sketch:type="MSShapeGroup"></path><path d="M55,43 L41,43 C40.448,43 40,42.552 40,42 L40,35 C40,34.448 40.448,34 41,34 L55,34 C55.552,34 56,34.448 56,35 L56,42 C56,42.552 55.552,43 55,43 L55,43 Z M42,41 L54,41 L54,36 L42,36 L42,41 Z" sketch:type="MSShapeGroup"></path><path d="M8,37 C7.448,37 7,36.552 7,36 L7,17 C7,16.448 7.448,16 8,16 C8.552,16 9,16.448 9,17 L9,36 C9,36.552 8.552,37 8,37" sketch:type="MSShapeGroup"></path><path d="M11,31 L5,31 C4.448,31 4,30.552 4,30 C4,29.448 4.448,29 5,29 L11,29 C11.552,29 12,29.448 12,30 C12,30.552 11.552,31 11,31" sketch:type="MSShapeGroup"></path><path d="M3,42 C2.744,42 2.488,41.902 2.293,41.707 C1.902,41.317 1.902,40.683 2.293,40.293 L7.293,35.293 C7.684,34.902 8.316,34.902 8.707,35.293 C9.098,35.683 9.098,36.317 8.707,36.707 L3.707,41.707 C3.512,41.902 3.256,42 3,42" sketch:type="MSShapeGroup"></path><path d="M13,42 C12.744,42 12.488,41.902 12.293,41.707 L7.293,36.707 C6.902,36.317 6.902,35.683 7.293,35.293 C7.684,34.902 8.316,34.902 8.707,35.293 L13.707,40.293 C14.098,40.683 14.098,41.317 13.707,41.707 C13.512,41.902 13.256,42 13,42" sketch:type="MSShapeGroup"></path><path d="M15,49 L1,49 C0.448,49 0,48.552 0,48 L0,41 C0,40.448 0.448,40 1,40 L15,40 C15.552,40 16,40.448 16,41 L16,48 C16,48.552 15.552,49 15,49 L15,49 Z M2,47 L14,47 L14,42 L2,42 L2,47 Z" sketch:type="MSShapeGroup"></path><path d="M16,60 C15.744,60 15.488,59.902 15.293,59.707 C14.902,59.317 14.902,58.683 15.293,58.293 L24.293,49.293 C24.684,48.902 25.316,48.902 25.707,49.293 C26.098,49.683 26.098,50.317 25.707,50.707 L16.707,59.707 C16.512,59.902 16.256,60 16,60" sketch:type="MSShapeGroup"></path><path d="M34,60 C33.744,60 33.488,59.902 33.293,59.707 L24.293,50.707 C23.902,50.317 23.902,49.683 24.293,49.293 C24.684,48.902 25.316,48.902 25.707,49.293 L34.707,58.293 C35.098,58.683 35.098,59.317 34.707,59.707 C34.512,59.902 34.256,60 34,60" sketch:type="MSShapeGroup"></path></g></g></svg>