<svg xmlns="http://www.w3.org/2000/svg" xmlns:xlink="http://www.w3.org/1999/xlink" version="1.1" x="0px" y="0px" viewBox="0 0 100 100" enable-background="new 0 0 100 100" xml:space="preserve"><g><path d="M89.785,33.339h-79.57c-1.358,0-2.471,1.112-2.471,2.471v15.32c0,1.359,1.112,2.472,2.471,2.472h4.219   c0.224,6.253,2.877,16.724,6.478,25.409C27.245,94.292,33.373,97.5,37.398,97.5h25.204c4.025,0,10.154-3.208,16.486-18.489   c3.602-8.686,6.254-19.156,6.479-25.409h4.219c1.357,0,2.471-1.112,2.471-2.472V35.81C92.256,34.451,91.143,33.339,89.785,33.339z    M75.893,77.687c-2.689,6.491-5.672,11.32-8.533,13.989c-11.258,10.5-21.838-19.636-24.204-26.433   c-0.949-2.727-2.565-11.642-6.593-11.642c0.019,0,45.541,0,45.541,0C81.881,58.684,79.721,68.449,75.893,77.687z M88.795,50.142   h-62.64c-0.898-0.831-1.471-1.779-1.832-2.804c-1.189-3.375-0.516-7.113-1.575-10.54h66.047V50.142z"></path><path d="M75.221,30.339l3.467-7.586c3.445-0.168,6.717-2.091,8.457-5.357c2.629-4.939,0.758-11.075-4.182-13.705   c-4.938-2.63-11.074-0.759-13.703,4.18c-1.74,3.265-1.51,7.054,0.273,10.006l-7.643,12.461H75.221z"></path></g></svg>