<svg xmlns="http://www.w3.org/2000/svg" xmlns:xlink="http://www.w3.org/1999/xlink" version="1.1" x="0px" y="0px" viewBox="0 0 100 100" enable-background="new 0 0 100 100" xml:space="preserve"><path d="M83.771,45.935c0.33-1.746-0.949-3.305-2.242-4.598l-7.149-7.149l9.353-9.353c2.238,1.597,6.11,3.839,8.037,1.913  c2.31-2.31-1.216-7.94-5.469-12.194c-4.254-4.253-9.884-7.779-12.194-5.469c-1.936,1.936,0.354,5.848,1.913,8.037l-9.353,9.354  l-7.149-7.15c-1.294-1.293-2.853-2.572-4.599-2.243c-1.154,0.218-2.076,1.097-2.759,2.657c-1.122,2.871-1.799,4.603,0.271,6.672  l3.372,3.372L21.87,63.715c-3.426,3.426-2.199,12.885-2.047,13.951l0.056,0.399l0.601,0.601L7.5,91.647l7.249-3.839l7.437-7.437  l0.601,0.601l0.399,0.057c1.067,0.151,10.525,1.38,13.952-2.047l33.932-33.932l3.372,3.372c2.07,2.07,3.802,1.393,6.718,0.252  C82.674,48.011,83.554,47.089,83.771,45.935z M72.245,32.055l11.133-11.132c0.139,0.196,0.25,0.372,0.336,0.517L72.673,32.481  L72.245,32.055z M75.803,10.797c0.564-0.353,4.121,0.792,8.791,5.462c4.67,4.669,5.815,8.227,5.477,8.775  c-0.283,0.178-1.852-0.024-4.608-1.931l0.556-0.556c0.303-0.303,0.422-0.744,0.313-1.158c-0.069-0.27-0.538-1.729-2.839-4.029  c-2.433-2.433-3.743-2.817-4.193-2.87c-0.367-0.043-0.732,0.084-0.993,0.345L77.75,15.39C75.843,12.631,75.641,11.064,75.803,10.797  z M79.434,17.119c0.459,0.273,1.237,0.831,2.354,1.947c0.325,0.325,0.6,0.625,0.839,0.902L71.394,31.202l-3.022-3.021L79.434,17.119  z M38.648,50.349l0.998-0.998c2.342,1.122,8.508,4.64,11.857,11.855l-1,0.999c-1.392-3.835-5.95-8.999-10.086-11.067l-1.567,1.567  c0.78,0.434,1.837,1.155,2.963,2.315c0.231,0.24,0.226,0.621-0.013,0.854c-0.24,0.232-0.64,0.216-0.854-0.015  c-1.189-1.228-2.298-1.91-2.99-2.262l-3.069,3.07c0.779,0.435,1.837,1.155,2.964,2.314c0.232,0.24,0.226,0.621-0.014,0.854  c-0.239,0.232-0.646,0.223-0.853-0.014c-1.189-1.229-2.298-1.911-2.991-2.263l-3.067,3.068c0.78,0.433,1.837,1.155,2.962,2.316  c0.231,0.241,0.226,0.622-0.014,0.854c-0.24,0.232-0.635,0.211-0.853-0.014c-1.189-1.228-2.298-1.911-2.991-2.262l-3.068,3.068  c0.779,0.434,1.837,1.156,2.962,2.316c0.232,0.24,0.226,0.622-0.013,0.853c-0.24,0.232-0.643,0.219-0.854-0.013  c-1.189-1.229-2.298-1.911-2.991-2.262l-1.214,1.214c-0.975,0.975-1.402,5.27-0.971,9.399c0,0,0.199,0.671-0.845,1.715l-0.88-0.881  c-0.457-3.628-0.461-9.635,1.417-11.513L38.648,50.349z M49.466,55.639l19.006-19.007c0.139,0.17,0.274,0.34,0.399,0.503  L49.86,56.146C49.73,55.973,49.598,55.805,49.466,55.639z M66.454,34.399c0.449,0.45,0.857,0.887,1.235,1.311l-19,18.999  c-1.322-1.504-2.706-2.727-3.999-3.7l19.028-19.027C64.557,32.623,65.477,33.422,66.454,34.399z M52.406,60.302  c-0.556-1.145-1.173-2.198-1.833-3.163l19.009-19.009c1.321,1.971,1.659,3.338,1.327,3.669L52.406,60.302z M43.698,50.296  c-1.231-0.844-2.33-1.451-3.143-1.854l18.5-18.5c0.331-0.331,1.697,0.006,3.669,1.328L43.698,50.296z M80.235,46.447  c-3.031,1.185-3.228,1.13-4.088,0.27l-3.389-3.389c2.038-2.397-0.996-7.032-4.6-10.635c-3.604-3.604-8.237-6.638-10.635-4.599  l-3.389-3.389c-0.859-0.86-0.915-1.056,0.252-4.044c0.312-0.71,0.667-1.151,0.978-1.209c0.333-0.063,1.027,0.16,2.446,1.578  l22.011,22.011c1.418,1.418,1.641,2.112,1.578,2.446C81.342,45.797,80.901,46.154,80.235,46.447z"></path></svg>